<svg width="154" height="37" viewBox="0 0 154 37" fill="none" xmlns="http://www.w3.org/2000/svg">
<path d="M5.42 0.299998H19.4L21.8 0.239999L21.86 2.58L9.38 30L6.98 36.24L4.4 35.46L4.22 34.92L18.86 3H4.82L0.8 3.24L0.5 2.82L0.74 0.179999L5.42 0.299998ZM39.7494 0C43.8294 0 46.9694 1.32 49.1694 3.96C51.3694 6.56 52.4694 10.28 52.4694 15.12C52.4694 20 51.3294 23.76 49.0494 26.4C46.8094 29 43.5894 30.3 39.3894 30.3C35.3094 30.3 32.1694 29.02 29.9694 26.46C27.7694 23.9 26.6694 20.26 26.6694 15.54C26.6694 10.54 27.7894 6.7 30.0294 4.02C32.3094 1.34 35.5494 0 39.7494 0ZM39.5094 2.88C36.1894 2.88 33.6294 3.94 31.8294 6.06C30.0694 8.18 29.1894 11.26 29.1894 15.3C29.1894 19.3 30.0694 22.34 31.8294 24.42C33.6294 26.5 36.2294 27.54 39.6294 27.54C42.9494 27.54 45.4894 26.52 47.2494 24.48C49.0094 22.4 49.8894 19.4 49.8894 15.48C49.8894 11.36 48.9894 8.24 47.1894 6.12C45.4294 3.96 42.8694 2.88 39.5094 2.88ZM71.6244 0C75.7044 0 78.8444 1.32 81.0444 3.96C83.2444 6.56 84.3444 10.28 84.3444 15.12C84.3444 20 83.2044 23.76 80.9244 26.4C78.6844 29 75.4644 30.3 71.2644 30.3C67.1844 30.3 64.0444 29.02 61.8444 26.46C59.6444 23.9 58.5444 20.26 58.5444 15.54C58.5444 10.54 59.6644 6.7 61.9044 4.02C64.1844 1.34 67.4244 0 71.6244 0ZM71.3844 2.88C68.0644 2.88 65.5044 3.94 63.7044 6.06C61.9444 8.18 61.0644 11.26 61.0644 15.3C61.0644 19.3 61.9444 22.34 63.7044 24.42C65.5044 26.5 68.1044 27.54 71.5044 27.54C74.8244 27.54 77.3644 26.52 79.1244 24.48C80.8844 22.4 81.7644 19.4 81.7644 15.48C81.7644 11.36 80.8644 8.24 79.0644 6.12C77.3044 3.96 74.7444 2.88 71.3844 2.88ZM103.499 0C107.579 0 110.719 1.32 112.919 3.96C115.119 6.56 116.219 10.28 116.219 15.12C116.219 20 115.079 23.76 112.799 26.4C110.559 29 107.339 30.3 103.139 30.3C99.0594 30.3 95.9194 29.02 93.7194 26.46C91.5194 23.9 90.4194 20.26 90.4194 15.54C90.4194 10.54 91.5394 6.7 93.7794 4.02C96.0594 1.34 99.2994 0 103.499 0ZM103.259 2.88C99.9394 2.88 97.3794 3.94 95.5794 6.06C93.8194 8.18 92.9394 11.26 92.9394 15.3C92.9394 19.3 93.8194 22.34 95.5794 24.42C97.3794 26.5 99.9794 27.54 103.379 27.54C106.699 27.54 109.239 26.52 110.999 24.48C112.759 22.4 113.639 19.4 113.639 15.48C113.639 11.36 112.739 8.24 110.939 6.12C109.179 3.96 106.619 2.88 103.259 2.88ZM138.547 20.52L138.607 23.4H145.507L145.687 23.64L145.567 25.08H138.607L138.667 30H135.847L135.907 25.08H131.887L131.647 24.9L131.827 23.4H135.907V20.76L135.847 0.299998L144.547 0.239999C147.507 0.239999 149.787 0.979999 151.387 2.46C153.027 3.9 153.847 5.98 153.847 8.7C153.847 11.74 152.847 14.1 150.847 15.78C148.887 17.46 146.147 18.3 142.627 18.3H138.547V20.52ZM150.907 8.88C150.907 6.84 150.327 5.28 149.167 4.2C148.007 3.08 146.307 2.46 144.067 2.34L138.667 2.46L138.547 16.02L144.127 16.14C146.327 15.86 148.007 15.1 149.167 13.86C150.327 12.62 150.907 10.96 150.907 8.88Z" fill="#151515"/>
</svg>
