<svg width="0" height="0" class="hidden">

    <symbol xmlns="http://www.w3.org/2000/svg" viewBox="0 0 13 15" id="phone">
        <path d="M12.669 13.1545C12.4344 13.6557 11.9652 13.9063 11.4959 14.1569C10.9094 14.5327 10.4402 14.658 9.85367 14.658C9.03253 14.658 8.21139 14.2822 7.50756 14.0316C6.92103 13.781 6.45181 13.5304 5.86528 13.2798C4.223 12.1522 2.34611 10.1474 1.40767 8.51861C1.05575 7.89214 0.821139 7.39096 0.586528 6.76449C0.351917 5.88743 0 5.13567 0 4.13331C0 3.50684 0.117306 2.88037 0.469222 2.25389C0.703833 1.75272 0.938445 1.25154 1.40767 1.00095C1.75958 1.00095 2.34611 0.875656 2.69803 0.875656C2.81533 0.875656 2.81533 0.875656 2.93264 0.875656C3.16725 1.00095 3.28456 1.37683 3.40186 1.62742C3.63647 2.25389 3.98839 2.75507 4.223 3.38154C4.45761 3.63213 4.69222 3.88272 4.69222 4.13331C4.69222 4.75978 3.04994 5.63684 3.04994 6.13802C3.04994 6.38861 3.28456 6.76449 3.40186 7.01508C4.34031 8.7692 5.51336 10.0221 7.15564 11.0245C7.39025 11.1498 7.74217 11.4004 7.97678 11.4004C8.446 11.4004 9.26714 9.64626 9.85367 9.64626C10.0883 9.64626 10.3229 9.89685 10.5575 10.1474C11.0267 10.5233 11.6133 10.7739 12.0825 11.1498C12.3171 11.2751 12.669 11.4004 12.7863 11.651C12.7863 11.7763 12.7863 11.7763 12.7863 11.9016C12.9036 12.1522 12.7863 12.7786 12.669 13.1545Z" fill="white"></path>
    </symbol>


    <symbol xmlns="http://www.w3.org/2000/svg" viewBox="0 0 41 41" id="surf">
        <path d="M37.5485 3.45152C37.3352 3.23814 37.0379 3.13037 36.7376 3.15814C36.6123 3.16952 33.6209 3.45402 29.5183 4.83108C16.1663 8.94322 7.32974 21.8899 3.22065 31.2558C2.962 31.8743 3.48458 32.7021 4.26676 32.6337L8.80535 32.1922L8.36386 36.7304C8.31549 37.3828 8.94883 38.0699 9.74184 37.7764C26.0466 30.3472 35.9919 18.976 37.8419 4.26228C37.8694 3.96186 37.7619 3.66476 37.5485 3.45152ZM24.4105 25.7881C22.6089 27.4277 20.8329 28.8372 19.1913 30.0245V12.7211C20.9122 11.3108 22.6957 10.1677 24.4105 9.24486V25.7881ZM14.4936 33.0991C12.8802 34.0471 11.5183 34.7389 10.5551 35.1956L10.9478 31.1597C11.006 30.6346 10.5202 29.9703 9.83797 30.05L5.8034 30.4424C7.16641 27.5507 10.8373 20.8176 17.159 14.5514V31.4322C16.1849 32.0781 15.286 32.6336 14.4936 33.0991ZM34.2232 10.8908C33.0298 14.4275 30.7123 19.5335 26.4428 23.8442V8.2325C29.2239 6.88932 33.4729 5.68533 35.6337 5.36608C35.4266 6.57955 35.0109 8.55616 34.2232 10.8908Z" fill="white"></path>
    </symbol>

    <symbol xmlns="http://www.w3.org/2000/svg" viewBox="0 0 41 41" id="material">
        <path d="M36.8298 15.4181H29.5562C29.5569 15.4117 29.5579 15.4054 29.5586 15.3991C30.405 14.6708 31.0815 13.8061 31.5729 12.8236C31.7304 12.5085 31.7136 12.1343 31.5284 11.8347C31.3432 11.535 31.016 11.3526 30.6638 11.3526H29.0949C28.7545 10.3896 28.2576 9.50036 27.6109 8.69742C27.6938 7.58516 27.5607 6.4969 27.2137 5.45599C27.1023 5.12181 26.8258 4.86914 26.483 4.78823C26.1401 4.70726 25.7799 4.80971 25.5308 5.05872L24.4191 6.17037C23.5006 5.73129 22.5227 5.45416 21.4992 5.34311C20.7321 4.43955 19.848 3.72436 18.9218 3.26116C18.6067 3.10362 18.2326 3.12043 17.9328 3.30561C17.6333 3.49079 17.4509 3.81793 17.4509 4.17021V5.80684C16.4879 6.14719 15.5986 6.6442 14.7957 7.29082C13.6836 7.20795 12.5951 7.3411 11.5544 7.68809C11.2202 7.79948 10.9675 8.07601 10.8866 8.4188C10.8057 8.76159 10.908 9.12192 11.1571 9.37094L12.2686 10.4824C11.8292 11.4016 11.552 12.3802 11.4411 13.4045C10.7601 13.9905 10.1893 14.665 9.73623 15.4182H4.17022C3.6089 15.4182 3.15384 15.8732 3.15384 16.4345V20.5001C3.15384 21.0614 3.6089 21.5164 4.17022 21.5164H5.25435V36.8298C5.25435 37.3911 5.70942 37.8462 6.27073 37.8462H10.3362C10.8975 37.8462 11.3526 37.3911 11.3526 36.8298V33.3847L20.5 29.7258L29.6474 33.3847V36.8298C29.6474 37.3911 30.1024 37.8461 30.6638 37.8461H34.7293C35.2906 37.8461 35.7456 37.3911 35.7456 36.8298V21.5164H36.8298C37.3911 21.5164 37.8461 21.0613 37.8461 20.5V16.4345C37.8461 15.8732 37.3911 15.4181 36.8298 15.4181V15.4181ZM13.0399 14.7226C13.2717 14.5431 13.4147 14.2723 13.4322 13.9796C13.5 12.8451 13.8237 11.7792 14.3944 10.8115C14.6298 10.4123 14.5652 9.90433 14.2376 9.57658L13.9639 9.30291C14.3037 9.29247 14.6479 9.30921 14.9952 9.35318C15.286 9.39004 15.5787 9.29952 15.798 9.10471C16.6472 8.35029 17.631 7.82455 18.722 7.542C19.1704 7.426 19.4836 7.02141 19.4836 6.55822V6.15607C19.7255 6.39404 19.9585 6.65687 20.179 6.94173C20.3585 7.17353 20.6293 7.3165 20.922 7.33398C22.0564 7.40174 23.1223 7.72549 24.0901 8.29615C24.4894 8.53155 24.9973 8.46704 25.325 8.13936L25.5988 7.86562C25.6092 8.20542 25.5925 8.5497 25.5485 8.89697C25.5117 9.18785 25.6022 9.4805 25.797 9.69977C26.5514 10.5491 27.0772 11.5328 27.3597 12.6238C27.4758 13.0722 27.8804 13.3854 28.3436 13.3854H28.7272C28.4937 13.6338 28.2377 13.8659 27.9602 14.0808C27.7284 14.2603 27.5854 14.5311 27.5679 14.8238C27.556 15.023 27.5354 15.2214 27.5072 15.4182H23.3743C23.4871 15.1 23.5491 14.7581 23.5491 14.4018C23.5491 12.7205 22.1813 11.3527 20.5 11.3527C18.8187 11.3527 17.4509 12.7205 17.4509 14.4018C17.4509 14.7581 17.5129 15.1 17.6257 15.4182H12.2733C12.5069 15.1698 12.7624 14.9375 13.0399 14.7226ZM21.5164 14.4017C21.5164 14.9622 21.0604 15.4181 20.5 15.4181C19.9396 15.4181 19.4836 14.9622 19.4836 14.4017C19.4836 13.8413 19.9396 13.3854 20.5 13.3854C21.0604 13.3854 21.5164 13.8413 21.5164 14.4017ZM9.31985 35.8134H7.2871V21.5164H9.31985C9.31985 21.5094 9.31992 31.5516 9.31985 35.8134ZM11.3526 31.1953V26.0667L17.7633 28.631L11.3526 31.1953ZM29.6474 31.1953L23.2367 28.631L29.6474 26.0667V31.1953ZM29.6474 23.8774L20.5 27.5364L11.3526 23.8774V21.5164H29.6474V23.8774ZM33.7129 35.8134H31.6801C31.6801 34.0105 31.6801 23.6905 31.6801 21.5164H33.7129V35.8134ZM35.8134 19.4836H5.18659V17.4509H35.8134V19.4836Z" fill="white"></path>
    </symbol>

    <symbol xmlns="http://www.w3.org/2000/svg" viewBox="0 0 35 25" id="delivery">
        <path d="M26.3553 15.9785C23.944 15.9785 21.9823 17.9402 21.9823 20.3515C21.9823 22.7628 23.944 24.7245 26.3553 24.7245C28.767 24.7245 30.7283 22.7628 30.7283 20.3515C30.7283 17.9402 28.7666 15.9785 26.3553 15.9785ZM26.3553 22.538C25.1494 22.538 24.1688 21.5573 24.1688 20.3515C24.1688 19.1456 25.1494 18.165 26.3553 18.165C27.5611 18.165 28.5418 19.1456 28.5418 20.3515C28.5418 21.5574 27.5611 22.538 26.3553 22.538Z" fill="white"></path>
        <path d="M11.4143 15.9785C9.00296 15.9785 7.04129 17.9402 7.04129 20.3515C7.04129 22.7628 9.00296 24.7245 11.4143 24.7245C13.8256 24.7245 15.7873 22.7628 15.7873 20.3515C15.7873 17.9402 13.8256 15.9785 11.4143 15.9785ZM11.4143 22.538C10.2084 22.538 9.22778 21.5573 9.22778 20.3515C9.22778 19.1456 10.2084 18.165 11.4143 18.165C12.6198 18.165 13.6008 19.1456 13.6008 20.3515C13.6008 21.5574 12.6201 22.538 11.4143 22.538Z" fill="white"></path>
        <path d="M29.3001 3.4616C29.1143 3.09245 28.7364 2.85956 28.3231 2.85956H22.5653V5.04606H27.6489L30.6258 10.9671L32.5798 9.98456L29.3001 3.4616Z" fill="white"></path>
        <path d="M23.0756 19.2947H14.8033V21.4812H23.0756V19.2947Z" fill="white"></path>
        <path d="M8.1345 19.2947H4.34464C3.74078 19.2947 3.25143 19.7841 3.25143 20.3879C3.25143 20.9918 3.74084 21.4811 4.34464 21.4811H8.13457C8.73843 21.4811 9.22778 20.9917 9.22778 20.3879C9.22778 19.7841 8.73836 19.2947 8.1345 19.2947Z" fill="white"></path>
        <path d="M34.6166 12.6113L32.4662 9.84173C32.2596 9.57497 31.9407 9.41898 31.6029 9.41898H23.6586V1.76628C23.6586 1.16242 23.1692 0.673065 22.5654 0.673065H4.34464C3.74078 0.673065 3.25143 1.16248 3.25143 1.76628C3.25143 2.37007 3.74084 2.85949 4.34464 2.85949H21.4721V10.5122C21.4721 11.1161 21.9616 11.6054 22.5653 11.6054H31.0675L32.6597 13.6563V19.2946H29.635C29.0311 19.2946 28.5418 19.784 28.5418 20.3878C28.5418 20.9917 29.0312 21.481 29.635 21.481H33.7529C34.3567 21.481 34.8461 20.9916 34.8462 20.3878V13.2818C34.8462 13.0391 34.7652 12.803 34.6166 12.6113Z" fill="white"></path>
        <path d="M8.06166 13.7556H3.0327C2.42884 13.7556 1.93949 14.245 1.93949 14.8488C1.93949 15.4527 2.42891 15.942 3.0327 15.942H8.06159C8.66546 15.942 9.15481 15.4526 9.15481 14.8488C9.15488 14.245 8.66546 13.7556 8.06166 13.7556Z" fill="white"></path>
        <path d="M10.5761 9.45544H1.24706C0.643266 9.45544 0.153847 9.94486 0.153847 10.5487C0.153847 11.1526 0.643266 11.6419 1.24706 11.6419H10.5761C11.18 11.6419 11.6693 11.1525 11.6693 10.5487C11.6693 9.94493 11.18 9.45544 10.5761 9.45544Z" fill="white"></path>
        <path d="M12.3617 5.15536H3.0327C2.42884 5.15536 1.93949 5.64478 1.93949 6.24857C1.93949 6.85244 2.42891 7.34179 3.0327 7.34179H12.3617C12.9656 7.34179 13.455 6.85237 13.455 6.24857C13.455 5.64478 12.9656 5.15536 12.3617 5.15536Z" fill="white"></path>
    </symbol>


    <symbol fill="none"
        xmlns="http://www.w3.org/2000/svg" viewBox="0 0 68 68" id="perfect">
        <path d="M53.8359 60.0312H47.8594V55.7812H50.5223C51.6225 55.7812 52.5145 54.8893 52.5145 53.7891C52.5145 52.6888 51.6225 51.7969 50.5223 51.7969H47.8594V47.8125H53.1785C54.2787 47.8125 55.1707 46.9205 55.1707 45.8203C55.1707 44.7201 54.2787 43.8281 53.1785 43.8281H47.8594V39.8438H50.5223C51.6225 39.8438 52.5145 38.9518 52.5145 37.8516C52.5145 36.7513 51.6225 35.8594 50.5223 35.8594H47.8594V31.875H53.1785C54.2787 31.875 55.1707 30.983 55.1707 29.8828C55.1707 28.7826 54.2787 27.8906 53.1785 27.8906H47.8594V23.9062H50.5223C51.6225 23.9062 52.5145 23.0143 52.5145 21.9141C52.5145 20.8138 51.6225 19.9219 50.5223 19.9219H47.8594V15.9375H53.1785C54.2787 15.9375 55.1707 15.0455 55.1707 13.9453C55.1707 12.8451 54.2787 11.9531 53.1785 11.9531H47.8594V7.96875H50.5223C51.6225 7.96875 52.5145 7.07678 52.5145 5.97656C52.5145 4.87634 51.6225 3.98438 50.5223 3.98438H47.8594V1.99219C47.8594 0.891969 46.9674 0 45.8672 0C44.767 0 43.875 0.891969 43.875 1.99219V60.0312H36.6821L37.7778 42.5H37.9051C39.0053 42.5 39.8973 41.608 39.8973 40.5078V27.2232C39.8973 22.8007 36.9982 19.0441 33.0014 17.7493C34.7475 16.7048 35.9195 14.7956 35.9195 12.6172C35.9195 9.32171 33.2384 6.64062 29.943 6.64062C26.6475 6.64062 23.9664 9.32171 23.9664 12.6172C23.9664 14.7946 25.1373 16.703 26.882 17.7479C22.8831 19.0415 19.982 22.7991 19.982 27.2232V40.5078C19.982 41.608 20.874 42.5 21.9742 42.5H22.0948L23.1905 60.0312H13.9922C12.892 60.0312 12 60.9232 12 62.0234V66.0078C12 67.108 12.892 68 13.9922 68C15.0924 68 15.9844 67.108 15.9844 66.0078V64.0156H51.8438V66.0078C51.8438 67.108 52.7357 68 53.8359 68C54.9362 68 55.8281 67.108 55.8281 66.0078V62.0234C55.8281 60.9232 54.9362 60.0312 53.8359 60.0312ZM29.943 10.625C31.0415 10.625 31.9352 11.5187 31.9352 12.6172C31.9352 13.7157 31.0415 14.6094 29.943 14.6094C28.8445 14.6094 27.9508 13.7157 27.9508 12.6172C27.9508 11.5187 28.8443 10.625 29.943 10.625ZM23.9664 27.2232C23.9664 23.9296 26.646 21.25 29.9398 21.25C33.2334 21.25 35.913 23.9296 35.913 27.2232V38.5156H23.9664V27.2232ZM26.0869 42.5H33.7856L32.6899 60.0312H27.1826L26.0869 42.5Z" fill="black"></path>
    </symbol>

    <symbol xmlns="http://www.w3.org/2000/svg" viewBox="0 0 68 68" id="strong">
        <path d="M35.875 32.1811V21.8166H40.025C49.9181 21.8166 57.9666 13.768 57.9666 3.875C57.9666 2.8395 57.1271 2 56.0916 2H50.0646C43.0369 2 36.9411 6.06275 33.9996 11.9622C31.0576 6.06262 24.9615 2 17.9334 2H11.9084C10.8729 2 10.0334 2.8395 10.0334 3.875C10.0334 13.7681 18.082 21.8166 27.975 21.8166H32.125V32.1811C15.3249 33.1521 2 47.0815 2 64.125C2 65.1605 2.8395 66 3.875 66H64.125C65.1605 66 66 65.1605 66 64.125C66 47.0815 52.6751 33.1521 35.875 32.1811ZM50.0646 5.75H54.0933C53.1726 12.692 47.2145 18.0666 40.025 18.0666H35.9981C36.9174 11.1243 42.8751 5.75 50.0646 5.75ZM27.975 18.0666C20.7854 18.0666 14.8272 12.692 13.9067 5.75H17.9334C25.123 5.75 31.0811 11.1246 32.0016 18.0666H27.975ZM5.8105 62.25C6.7385 47.9209 17.2449 40.245 24.0917 37.6657V42.3778C24.0917 42.9499 23.8689 43.4879 23.4641 43.8926L17.4391 49.9176C15.1423 52.2145 15.1423 55.9519 17.4391 58.2487L21.44 62.25H5.8105ZM26.7434 62.25L20.0906 55.5973C19.2543 54.7609 19.2534 53.4065 20.0906 52.5692L26.1156 46.5444C27.2288 45.4314 27.8417 43.9516 27.8417 42.3778V36.5489C29.8536 36.1014 31.9191 35.875 34 35.875C38.9144 35.875 43.6772 37.1336 47.9062 39.5337L37.5223 49.9178C35.2226 52.2174 35.2178 55.9449 37.5223 58.2489L41.5234 62.25H26.7434ZM46.8266 62.25L40.1739 55.5971C39.3382 54.7616 39.3371 53.4062 40.1739 52.5692L51.1001 41.6431C57.6121 46.6034 61.6477 54.1131 62.1879 62.2499H46.8266V62.25Z" fill="black"/>
    </symbol>

    <symbol xmlns="http://www.w3.org/2000/svg" viewBox="0 0 68 68" id="unique">
        <path d="M67.58 64.7842C67.4752 64.6494 64.9503 61.4478 59.6006 58.2906C56.9903 56.75 53.3914 55.0512 48.7861 53.8092C49.7611 50.514 50.8711 45.7687 51.3499 40.1027C51.8914 33.6964 51.5072 27.4363 50.2076 21.4964C48.5791 14.0532 45.5041 7.10361 41.0679 0.840703C40.6944 0.313437 40.0884 0 39.4422 0C38.7961 0 38.1901 0.313305 37.8166 0.840703C36.4181 2.81509 35.155 4.85802 34.0297 6.96283C32.9044 4.85788 31.6415 2.81509 30.2428 0.840703C29.8694 0.313437 29.2633 0 28.6172 0C27.9711 0 27.3651 0.313305 26.9916 0.840703C22.5554 7.10348 19.4804 14.053 17.8518 21.4965C16.5523 27.4364 16.168 33.6964 16.7095 40.1029C17.2019 45.9283 18.3614 50.7807 19.3554 54.0843C15.1095 55.2884 11.6855 56.8436 9.12061 58.2632C3.46718 61.3926 0.622734 64.5502 0.504398 64.683C-0.0175553 65.2692 -0.146649 66.1072 0.174492 66.8232C0.495632 67.5391 1.20737 68 1.99216 68H66.0078C66.7688 68 67.4633 67.5664 67.7976 66.8828C68.1317 66.1992 68.0474 65.3849 67.58 64.7842ZM20.9628 26.9581L34.3264 17.8771C34.7222 19.1401 35.0719 20.4201 35.3722 21.7176L20.5296 31.8038C20.6034 30.2441 20.7425 28.6243 20.9628 26.9581ZM21.9738 21.4539C23.1906 16.3163 25.2642 10.9068 28.6188 5.57441C30.3273 8.279 31.7667 11.0904 32.9405 14.0015L21.9738 21.4539ZM20.4961 36.6438L36.179 25.9865C36.8241 30.3597 36.9548 34.9112 36.5666 39.6274C36.1538 44.6411 35.1975 48.9293 34.323 52.0159C30.2386 52.0394 26.5399 52.4701 23.2384 53.1424C22.2965 50.0504 21.1538 45.3767 20.6797 39.7673C20.5957 38.7749 20.5323 37.7314 20.4961 36.6438ZM34.6735 55.9971C45.4742 55.9971 52.9886 59.0514 57.3905 61.6136C58.8019 62.4352 59.9934 63.2602 60.9717 64.0156H7.43402C12.1776 60.6701 21.2129 55.9971 34.6735 55.9971ZM39.444 5.57441C45.7576 15.5693 48.4302 27.0098 47.3915 39.6274C46.9364 45.1541 45.8212 49.7995 44.8829 52.9247C42.8862 52.5547 40.7358 52.2795 38.4326 52.133C39.2726 48.9847 40.1222 44.8692 40.5251 40.1029C41.0665 33.6965 40.6823 27.4364 39.3827 21.4965C38.6317 18.0636 37.5721 14.7359 36.214 11.532C37.1285 9.54749 38.1975 7.55557 39.444 5.57441Z" fill="black"/>
    </symbol>

</svg>